<svg xmlns="http://www.w3.org/2000/svg" viewBox="0 0 912.75 228.54"><defs><style>.cls-1,.cls-5{fill:#422515;}.cls-2{fill:#fbe8cb;}.cls-3{fill:#72977f;}.cls-4{fill:#cd4c2f;}.cls-5,.cls-7,.cls-8{fill-rule:evenodd;}.cls-6{fill:#9fd4b2;}.cls-7{fill:#fff;}.cls-8{fill:#445a4c;}.cls-9{fill:none;stroke:#fbe8cb;stroke-linejoin:bevel;stroke-width:10.73px;}.cls-10{fill:#22140c;}</style></defs><title>logo-color</title><circle class="cls-1" cx="114.27" cy="114.27" r="114.27"/><circle class="cls-2" cx="114.27" cy="114.27" r="104.13"/><circle class="cls-3" cx="114.27" cy="113.29" r="95.73"/><circle class="cls-2" cx="114.27" cy="113.29" r="73.59"/><circle class="cls-4" cx="114.27" cy="113.3" r="65.08"/><path class="cls-1" d="M94.74 178.31a61.43 61.43 0 0 0 11.73 3.27 20.26 20.26 0 0 1-3.19-7.39 25.69 25.69 0 0 1-.09-9.3 47 47 0 0 1-4.56-1.27s.3 6.4-.22 9.11c-.41 2.18-2.09 3.97-3.67 5.58zM129.64 181.58a59.71 59.71 0 0 0 11.27-3.1 31.65 31.65 0 0 1-2.57-6.3c-.73-3.22-.41-10.06-.41-10.06q-2.24.89-4.64 1.64a37.47 37.47 0 0 1-.22 9.67c-.67 3.37-1.07 5.76-3.43 8.15z" transform="translate(-3.77 -4.23)"/><path class="cls-5" d="M121.24 64.65l2.55.28a42.81 42.81 0 0 0 1.41-8.49 22.58 22.58 0 0 0-.92-8.2 15.45 15.45 0 0 0-4.31-7 17.08 17.08 0 0 0-7.57-4 31.24 31.24 0 0 0-8.7-.63 44.66 44.66 0 0 1 10 9 23.38 23.38 0 0 1 4.22 8.39 17.19 17.19 0 0 1 .56 6.72q-1.48-3.19-3.18-6.44a18.2 18.2 0 0 0-4.6-5.66 14.62 14.62 0 0 0-8.2-2.83 15.2 15.2 0 0 0-8.62 2.21 32 32 0 0 0-7.28 5.72q-3.25 3.46-5.87 6.72a28.07 28.07 0 0 1 9.68-3.54 29.37 29.37 0 0 1 12.45.43 27 27 0 0 1 12.37 7.42 50.67 50.67 0 0 1 6-.07m-41.64 87a32.13 32.13 0 0 1-3.46 9.55 24.82 24.82 0 0 1-6.43 7.56 19.74 19.74 0 0 1-9.33 4 23.86 23.86 0 0 1-1.06-10.82 29.24 29.24 0 0 1 3.75-11 29.93 29.93 0 0 1 8.41-9.05 38.28 38.28 0 0 1-15.84 5.23 29.29 29.29 0 0 1-15.63-2.89 23.33 23.33 0 0 1 7.78-7.85 25.45 25.45 0 0 1 10-3.4 31.11 31.11 0 0 1 10.61.57 44.84 44.84 0 0 0 11.24 18.1" transform="translate(-3.77 -4.23)"/><circle class="cls-6" cx="113.89" cy="112.48" r="53.2"/><path class="cls-7" d="M157.24 101a19 19 0 0 1-3.33 9.45 19.12 19.12 0 0 1-25.86 5.27 19.33 19.33 0 0 1-6.19-6.27 22.43 22.43 0 0 1-21.68 12.32 22.35 22.35 0 0 1-11-3.87 23.59 23.59 0 0 1-7.36-8.6 22.56 22.56 0 0 1-2.17-11.46 22.43 22.43 0 0 1 12.55-18.36 22.67 22.67 0 0 1 11.47-2.17 21.84 21.84 0 0 1 10.84 3.87 23.19 23.19 0 0 1 7.36 8.45 19.08 19.08 0 0 1 33.52 1.55 18.58 18.58 0 0 1 1.86 9.83" transform="translate(-3.77 -4.23)"/><path class="cls-5" d="M128.86 91.86a3.59 3.59 0 0 1 2.43 1.26 3.66 3.66 0 0 1 .91 2.68 3.62 3.62 0 0 1-1.26 2.51 3.8 3.8 0 0 1-2.67.83 3.86 3.86 0 0 1-2.34-1.08 12.66 12.66 0 0 0 3.85 7.19 12 12 0 0 0 7.53 3.34 12.59 12.59 0 0 0 2-25.09 12.56 12.56 0 0 0-8.31 2.34 12.21 12.21 0 0 0-4.85 6.94 3.52 3.52 0 0 1 2.67-.92M116.32 97.21a14.82 14.82 0 0 0-1.42-7.53 14.12 14.12 0 0 0-4.9-5.68 14.88 14.88 0 0 0-7.19-2.59 14.27 14.27 0 0 0-9.62 2.67 14.91 14.91 0 0 0-5.69 8.12 4.44 4.44 0 0 1 3.1-1 4.33 4.33 0 0 1 2.93 1.51 4.26 4.26 0 0 1 1 3.09 4 4 0 0 1-1.51 2.85 4.23 4.23 0 0 1-3.09 1 4.18 4.18 0 0 1-2.76-1.34 14.82 14.82 0 0 0 13.39 12.39 14.87 14.87 0 0 0 7.53-1.43 14.22 14.22 0 0 0 5.6-4.85 15.29 15.29 0 0 0 2.6-7.2" transform="translate(-3.77 -4.23)"/><path class="cls-8" d="M135.41 129.85a33.13 33.13 0 0 0-28.76 2.15l16.08 12.2 12.68-14.33" transform="translate(-3.77 -4.23)"/><path class="cls-9" d="M16.48 113.08h31.3M179.69 113.08h31.3"/><path class="cls-10" d="M285.69 86.3l1.11-9.65c3-24.21 15-31.49 30.85-31.49 6 0 11.55 1.11 15.51 3.64 3.16 4.75 3.64 14.08 2.38 19.78a25 25 0 0 0-14.08-4.27c-9 0-12.82 3.8-13.77 13l-.95 9h17.72a19.43 19.43 0 0 1 1.11 7.28c0 4.9-.79 8.86-2.21 11.55h-18.68l-8.86 83.23c-2.21 1.11-5.7 1.9-11.39 1.9s-9.18-.79-11.23-1.9l10.13-83.23h-10.93a54.56 54.56 0 0 1 4-18.83h9.33zM347.71 134.08c-.16 1.42-.31 3.32-.31 4.75 0 5.06 1.9 8.54 9.18 8.54 6.17 0 10.13-2.69 14.24-8.23l6.64-51.74c2.38-1.11 5.54-1.74 10.6-1.74s8.54.63 10.28 1.74l-5.54 52.85c-.63 6.33 1.11 8.07 4.9 8.07a11.72 11.72 0 0 0 6-1.58c1.11 6-1.27 14.87-4.43 18.51-3.16 2.06-6.49 3-11.87 3-9.49 0-15-4.43-15.66-14.08h-1.11c-3.64 7.91-10.44 14.08-24.21 14.08-16.77 0-22.31-8.86-22.31-22.31a47.25 47.25 0 0 1 .63-7.59l7.26-49.35c5.7-2.85 11.87-4 21.36-4zM420 88c4-1.9 9.65-3 17.41-3v14.74h1.11c3.8-9.33 11.71-16.61 25.31-16.61 13.29 0 21.52 6.8 21.52 22.15 0 2.69-.32 5.06-.63 8.39l-2.69 26.58c-.64 6.8 1.26 8.07 4.74 8.07a11.71 11.71 0 0 0 6-1.58c1.11 6-1.11 14.87-4.27 18.51a22.13 22.13 0 0 1-12 3c-12.5 0-17.4-5.85-17.4-17.56 0-2.53.47-6.8.79-9.49l3.16-23.26a42 42 0 0 0 .32-4.43c0-5.38-1.9-10.13-9.18-10.13s-12.66 4.9-16 12.18l-5.38 48.26c-2.21 1.11-5.69 1.9-11.39 1.9s-9-.79-11.08-1.9zM533.47 168.26c-22.47 0-34.81-12.5-34.81-36.87 0-12.34 3.16-23.89 10-32.75 7.28-9.49 17.88-15.51 33.38-15.51 7.28 0 12.5 1.27 16.77 3.8 3.16 4.75 4.43 13.61 3.16 19.78a31.19 31.19 0 0 0-16.62-4.59c-7.59 0-13.61 2.37-17.72 6.8-4.27 4.59-6.49 11.23-6.49 19.15 0 14.87 7.44 20.09 20.1 20.09a41.49 41.49 0 0 0 18-4.11c.79 6.33-1.74 15.35-6 19.94a43.12 43.12 0 0 1-19.77 4.27zM602.62 152c8.23-14.71 17.09-36.39 17.09-45.89 0-3.64-1.26-5.22-4.9-5.22a9.31 9.31 0 0 0-5.22 1.58c-.79-5.38 1.9-13 4.59-15.82 2.53-1.9 5.85-3.48 11.55-3.48 11.39 0 16 7 16 16.93 0 18.83-13.77 47-26.9 66.3-12.34 17.88-27.06 32.12-49.37 38.29-4.9-4.11-7.59-11.23-7.59-20.57 11.71-2.85 21.68-9.65 29.27-17.72l-19.14-78.05c2.53-1.74 7-3 13-3 4.27 0 6.8.64 8.54 1.43l9.81 42.41a101.8 101.8 0 0 1 2.16 22.81h1.11zM678.73 168.26c-22.47 0-34.81-12.5-34.81-36.87 0-12.34 3.16-23.89 10-32.75 7.28-9.49 17.88-15.51 33.38-15.51 7.28 0 12.5 1.27 16.77 3.8 3.16 4.75 4.43 13.61 3.16 19.78a31.19 31.19 0 0 0-16.62-4.59c-7.59 0-13.61 2.37-17.72 6.8-4.27 4.59-6.49 11.23-6.49 19.15 0 14.87 7.44 20.09 20.1 20.09a41.49 41.49 0 0 0 18-4.11c.79 6.33-1.74 15.35-6 19.94a43.12 43.12 0 0 1-19.77 4.27zM740.28 140.25c-.79 6.49 1.26 8.07 5.54 8.07a14.74 14.74 0 0 0 7.75-2.22c1.11 6-1.11 14.87-4.27 18.51a25.49 25.49 0 0 1-13.92 3.64c-12.82 0-18.36-6.17-18.36-17.56 0-2.53.48-6.8.79-9.49l11.71-89.87c5.06-2.85 11.71-4.11 21-4.11zM781.27 135c.79 12.34 5.38 14.87 15.35 14.87a50.15 50.15 0 0 0 27.85-8.07c0 5.85-2.38 14.87-6.33 19.15-5.7 4-14.72 7.28-27.38 7.28-21.2 0-31.49-11.55-31.49-33.54 0-14.24 4.75-28.8 13.77-38.61 7.28-7.91 17.72-13 30.85-13 16.93 0 25.79 8.23 25.79 21.84 0 14.44-9.81 28.21-48.41 30.08zm28.48-28.8c0-3.8-2.38-6.8-8.07-6.8a18.36 18.36 0 0 0-14.87 7.91c-1.74 2.37-3.32 6.33-4.43 11.55 19.46-.76 27.37-5.98 27.37-12.63zM905.48 140.25c-.79 6.65 1.26 8.07 4.74 8.07a11.72 11.72 0 0 0 6-1.58c1.11 6-1.11 14.87-4.27 18.51a22.14 22.14 0 0 1-12 3c-9.33 0-15-4-15.82-13.61h-1.13c-3.32 7.12-10.6 13.61-22.78 13.61-13.61 0-25.32-7.75-25.32-32.75 0-12.34 2.85-25.63 9.18-35.12 7.75-11.87 20.41-17.25 33.23-17.25a28.7 28.7 0 0 1 12.69 2.53l4.43-34.33c5.06-2.85 12-4.11 21.36-4.11zm-17.41-35.92a15.71 15.71 0 0 0-8.39-2.06c-7.12 0-13.13 2.85-16.46 7.28-4.27 5.69-5.85 15.66-5.85 22.47 0 11.23 4.43 15.82 12.18 15.82 6.33 0 10.44-3 13.92-7.28z" transform="translate(-3.77 -4.23)"/></svg>