<svg xmlns="http://www.w3.org/2000/svg" viewBox="0 0 911.98 228.34"><defs><style>.cls-1,.cls-5{fill:#010101;}.cls-2,.cls-6,.cls-7{fill:#fff;}.cls-3{fill:#b3b3b3;}.cls-4{fill:#4d4d4d;}.cls-5,.cls-6{fill-rule:evenodd;}.cls-7{stroke:#fff;stroke-linejoin:bevel;stroke-width:10.72px;}</style></defs><title>logo-bw</title><circle class="cls-1" cx="114.17" cy="114.17" r="114.17"/><circle class="cls-2" cx="114.17" cy="114.17" r="104.04"/><circle class="cls-3" cx="114.17" cy="113.2" r="95.65"/><circle class="cls-2" cx="114.17" cy="113.19" r="73.53"/><circle class="cls-4" cx="114.17" cy="113.2" r="65.02"/><path class="cls-1" d="M95.43 178.33a61.35 61.35 0 0 0 11.72 3.27 20.24 20.24 0 0 1-3.19-7.39 25.67 25.67 0 0 1-.09-9.29 47 47 0 0 1-4.55-1.27s.3 6.39-.22 9.11c-.44 2.18-2.1 3.97-3.67 5.57zM130.3 181.6a59.63 59.63 0 0 0 11.26-3.1 31.62 31.62 0 0 1-2.57-6.29c-.73-3.22-.4-10-.4-10q-2.24.89-4.63 1.64a37.44 37.44 0 0 1-.22 9.66c-.68 3.32-1.03 5.71-3.44 8.09z" transform="translate(-4.54 -4.41)"/><path class="cls-5" d="M121.92 64.77l2.54.28a42.69 42.69 0 0 0 1.41-8.48 22.57 22.57 0 0 0-.92-8.19 15.45 15.45 0 0 0-4.31-7 17.05 17.05 0 0 0-7.56-4 31.09 31.09 0 0 0-8.69-.64 44.54 44.54 0 0 1 10 9 23.32 23.32 0 0 1 4.24 8.34 17.14 17.14 0 0 1 .56 6.71q-1.48-3.17-3.18-6.43a18.19 18.19 0 0 0-4.59-5.65 14.58 14.58 0 0 0-8.23-2.71 15.18 15.18 0 0 0-8.62 2.12 32.13 32.13 0 0 0-7.28 5.72q-3.29 3.44-5.85 6.7a27.91 27.91 0 0 1 9.67-3.54 29.4 29.4 0 0 1 12.44.42 27 27 0 0 1 12.36 7.42 50 50 0 0 1 6-.07m-41.61 87a32.1 32.1 0 0 1-3.46 9.54 24.8 24.8 0 0 1-6.43 7.55 19.72 19.72 0 0 1-9.33 4 23.84 23.84 0 0 1-1.08-10.86 29.23 29.23 0 0 1 3.78-11 29.89 29.89 0 0 1 8.4-9 38.19 38.19 0 0 1-15.82 5.22 29.26 29.26 0 0 1-15.61-2.89 23.33 23.33 0 0 1 7.77-7.84 25.31 25.31 0 0 1 10-3.4 31 31 0 0 1 10.6.57 44.82 44.82 0 0 0 11.23 18.08" transform="translate(-4.54 -4.41)"/><circle class="cls-3" cx="113.79" cy="112.38" r="53.16"/><path class="cls-6" d="M157.88 101.1a18.92 18.92 0 0 1-10.67 15.71 19.09 19.09 0 0 1-18.49-1 19.24 19.24 0 0 1-6.19-6.27 22.38 22.38 0 0 1-21.66 12.31 22.33 22.33 0 0 1-11-3.87 23.61 23.61 0 0 1-7.35-8.59 22.56 22.56 0 0 1-2.16-11.45 22.41 22.41 0 0 1 12.53-18.35 22.58 22.58 0 0 1 11.46-2.17 21.78 21.78 0 0 1 10.83 3.87 23.17 23.17 0 0 1 7.35 8.44 19.07 19.07 0 0 1 33.47 1.54 18.58 18.58 0 0 1 1.86 9.82" transform="translate(-4.54 -4.41)"/><path class="cls-5" d="M129.53 92a3.58 3.58 0 0 1 2.47 1.21 3.68 3.68 0 0 1 .91 2.68 3.61 3.61 0 0 1-1.26 2.51 3.72 3.72 0 0 1-5-.25 12.62 12.62 0 0 0 3.84 7.18 12 12 0 0 0 7.52 3.34 12.58 12.58 0 0 0 2-25.07 12.59 12.59 0 0 0-8.27 2.35 12.22 12.22 0 0 0-4.85 6.93 3.53 3.53 0 0 1 2.67-.92M117 97.31a14.81 14.81 0 0 0-1.42-7.52 14.11 14.11 0 0 0-4.85-5.68 14.81 14.81 0 0 0-7.19-2.59 14.28 14.28 0 0 0-9.62 2.67 14.93 14.93 0 0 0-5.69 8.11 4.43 4.43 0 0 1 3.1-1 4.3 4.3 0 0 1 2.93 1.51 4.25 4.25 0 0 1 1 3.09 4 4 0 0 1-1.5 2.85 4.23 4.23 0 0 1-5.85-.34 14.81 14.81 0 0 0 13.37 12.37 14.86 14.86 0 0 0 7.52-1.42 14.24 14.24 0 0 0 5.6-4.85 15.28 15.28 0 0 0 2.6-7.2M136.07 129.92a33.12 33.12 0 0 0-28.73 2.08l16.07 12.2 12.67-14.32" transform="translate(-4.54 -4.41)"/><path class="cls-7" d="M16.47 112.98h31.27M179.54 112.98h31.27"/><path class="cls-1" d="M286.22 90.61l1.11-9.61c3-24.19 15-31.46 30.83-31.46 6 0 11.54 1.11 15.49 3.64 3.16 4.74 3.64 14.07 2.37 19.76a25 25 0 0 0-14.07-4.27c-9 0-12.81 3.79-13.75 13l-.95 9h17.75a19.41 19.41 0 0 1 1.11 7.27c0 4.9-.79 8.85-2.21 11.54h-18.71l-8.85 83.16c-2.21 1.11-5.69 1.9-11.38 1.9s-9.17-.79-11.22-1.9l10.12-83.16h-10.92a54.51 54.51 0 0 1 4-18.81h9.33zM348.19 138.35c-.16 1.42-.31 3.32-.31 4.74 0 5.06 1.9 8.54 9.17 8.54 6.17 0 10.12-2.69 14.23-8.22l6.64-51.7c2.37-1.11 5.54-1.74 10.59-1.74s8.54.63 10.28 1.74l-5.53 52.8c-.63 6.32 1.11 8.07 4.9 8.07a11.71 11.71 0 0 0 6-1.58c1.11 6-1.27 14.86-4.43 18.49-3.16 2.06-6.48 3-11.86 3-9.49 0-15-4.43-15.65-14.07h-1.11c-3.63 7.9-10.43 14.07-24.19 14.07-16.76 0-22.29-8.85-22.29-22.29a47.21 47.21 0 0 1 .63-7.59l7.27-49.33c5.69-2.84 11.86-4 21.34-4zM420.45 92.34c4-1.9 9.64-3 17.39-3v14.66h1.11c3.79-9.33 11.7-16.6 25.29-16.6 13.28 0 21.5 6.8 21.5 22.13 0 2.69-.32 5.06-.63 8.38l-2.69 26.56c-.64 6.8 1.26 8.07 4.74 8.07a11.7 11.7 0 0 0 6-1.58c1.11 6-1.11 14.86-4.27 18.49a22.11 22.11 0 0 1-12 3c-12.49 0-17.39-5.85-17.39-17.55 0-2.53.47-6.8.79-9.49l3.16-23.24a42 42 0 0 0 .32-4.43c0-5.37-1.9-10.12-9.17-10.12s-12.64 4.9-16 12.17l-5.37 48.22c-2.21 1.11-5.69 1.9-11.38 1.9s-9-.79-11.07-1.9zM533.8 172.5c-22.45 0-34.8-12.5-34.8-36.84 0-12.33 3.16-23.87 10-32.73 7.27-9.49 17.86-15.49 33.36-15.49 7.27 0 12.49 1.27 16.76 3.79 3.16 4.74 4.43 13.6 3.16 19.76a31.16 31.16 0 0 0-16.6-4.58c-7.59 0-13.59 2.37-17.71 6.8-4.27 4.58-6.48 11.22-6.48 19.13 0 14.86 7.43 20.08 20.08 20.08a41.46 41.46 0 0 0 18-4.11c.79 6.32-1.74 15.33-6 19.92a43.09 43.09 0 0 1-19.77 4.27zM602.89 156.21c8.22-14.7 17.07-36.36 17.07-45.85 0-3.64-1.26-5.22-4.9-5.22a9.3 9.3 0 0 0-5.22 1.58c-.79-5.37 1.9-13 4.59-15.81 2.57-1.91 5.85-3.47 11.57-3.47 11.38 0 16 7 16 16.92 0 18.81-13.75 47-26.87 66.24-12.33 17.87-27 32.1-49.33 38.26-4.9-4.11-7.59-11.22-7.59-20.55 11.7-2.85 21.66-9.64 29.25-17.71l-19.2-77.94c2.53-1.74 7-3 13-3 4.27 0 6.8.64 8.54 1.42l9.8 42.37a101.71 101.71 0 0 1 2.21 22.76h1.11zM678.93 172.5c-22.45 0-34.78-12.49-34.78-36.84 0-12.33 3.16-23.87 10-32.73 7.27-9.49 17.86-15.49 33.36-15.49 7.27 0 12.49 1.27 16.76 3.79 3.16 4.74 4.43 13.6 3.16 19.76a31.16 31.16 0 0 0-16.6-4.58c-7.59 0-13.59 2.37-17.71 6.8-4.27 4.58-6.48 11.22-6.48 19.13 0 14.86 7.43 20.08 20.08 20.08a41.46 41.46 0 0 0 18-4.11c.79 6.32-1.74 15.33-6 19.92a43.09 43.09 0 0 1-19.79 4.27zM740.43 144.51c-.79 6.48 1.26 8.07 5.53 8.07a14.73 14.73 0 0 0 7.75-2.22c1.11 6-1.11 14.86-4.27 18.5a25.47 25.47 0 0 1-13.91 3.64c-12.81 0-18.34-6.17-18.34-17.55 0-2.53.47-6.8.79-9.49l11.7-89.79c5.06-2.85 11.7-4.11 21-4.11zM781.38 139.3c.79 12.33 5.38 14.86 15.34 14.86a50.11 50.11 0 0 0 27.83-8.06c0 5.85-2.37 14.86-6.32 19.13-5.69 4-14.7 7.27-27.35 7.27-21.18 0-31.46-11.54-31.46-33.52 0-14.23 4.74-28.77 13.75-38.57 7.27-7.91 17.71-13 30.83-13 16.92 0 25.77 8.22 25.77 21.82-.01 14.42-9.77 28.17-48.39 30.07zm28.46-28.77c0-3.8-2.37-6.8-8.06-6.8a18.35 18.35 0 0 0-14.86 7.91c-1.74 2.37-3.32 6.32-4.43 11.54 19.44-.8 27.35-6.01 27.35-12.65zM905.49 144.51c-.79 6.64 1.26 8.07 4.74 8.07a11.71 11.71 0 0 0 6-1.58c1.11 6-1.11 14.86-4.27 18.49a22.12 22.12 0 0 1-12 3c-9.33 0-15-4-15.81-13.6h-1.15c-3.32 7.12-10.59 13.6-22.76 13.6-13.6 0-25.3-7.75-25.3-32.73 0-12.33 2.84-25.61 9.17-35.09 7.75-11.86 20.4-17.23 33.2-17.23a28.67 28.67 0 0 1 12.69 2.56l4.43-34.3c5.06-2.85 12-4.11 21.34-4.11zm-17.39-35.89a15.69 15.69 0 0 0-8.38-2.06c-7.11 0-13.12 2.84-16.44 7.27-4.27 5.69-5.85 15.65-5.85 22.45 0 11.22 4.43 15.81 12.17 15.81 6.32 0 10.44-3 13.91-7.27z" transform="translate(-4.54 -4.41)"/></svg>